<svg width="55" height="17" viewBox="0 0 55 17" fill="none" xmlns="http://www.w3.org/2000/svg">
<path d="M0 7.88938C0 8.9082 0.76305 9.734 1.70442 9.734C2.16992 9.734 2.59209 9.53224 2.8997 9.20488V13H5.74039C5.37931 12.6617 5.15033 12.1616 5.15033 11.6042C5.15033 10.5854 5.91337 9.75957 6.85473 9.75957C7.7961 9.75957 8.55913 10.5854 8.55913 11.6042C8.55913 12.1616 8.33016 12.6617 7.96908 13H12V9.01333C11.6876 9.4349 11.208 9.70484 10.6698 9.70484C9.72844 9.70484 8.96543 8.87903 8.96543 7.8602C8.96543 6.84139 9.72848 6.01559 10.6698 6.01559C11.208 6.01559 11.6876 6.28553 12 6.7071V3.15102H8.43945C8.7489 2.81705 8.94015 2.35499 8.94015 1.84463C8.94015 0.825805 8.1771 0 7.23574 0C6.29434 0 5.53133 0.825827 5.53133 1.84463C5.53133 2.35498 5.72258 2.81705 6.03203 3.15102H2.89969V6.57387C2.59206 6.2464 2.16998 6.04474 1.70441 6.04474C0.76304 6.04474 0 6.87057 0 7.88938Z" fill="url(#paint0_linear_196_12)"/>
<path d="M8.77925 14.2478C9.58358 14.7965 10.6924 14.6054 11.2562 13.821C11.5349 13.4332 11.6285 12.9728 11.5543 12.5402L14.5503 14.584L16.2515 12.2171C15.7682 12.3358 15.2363 12.2572 14.7962 11.957C13.9919 11.4084 13.7969 10.3278 14.3606 9.54344C14.9244 8.75907 16.0333 8.56804 16.8376 9.11673C17.2776 9.41691 17.5354 9.87703 17.5862 10.3601L20.0001 7.00142L16.8528 4.85441C16.9985 5.34172 16.9244 5.88673 16.6021 6.33514C16.0384 7.11953 14.9295 7.31055 14.1252 6.76186C13.3209 6.21318 13.1259 5.13266 13.6896 4.3483C14.0119 3.89991 14.5122 3.64566 15.0321 3.61239L12.2247 1.69727L10.0925 4.664C10.0141 4.2263 9.7639 3.8181 9.36099 3.54325C8.55667 2.99456 7.44777 3.18561 6.88403 3.96997C6.32027 4.75437 6.5153 5.83487 7.31961 6.38354C7.72251 6.65839 8.20183 6.74789 8.6508 6.66991L6.77499 9.27984L9.4772 11.1232C9.03445 11.2032 8.62248 11.4463 8.34367 11.8342C7.77993 12.6186 7.97494 13.6991 8.77925 14.2478Z" fill="url(#paint1_linear_196_12)"/>
<path d="M26.1441 3.99211L25.1121 7.72011H24.3681L23.4001 4.09611C23.4054 4.74678 23.4161 5.40278 23.4321 6.06411C23.4534 6.72544 23.4694 7.37078 23.4801 8.00011H22.2161C22.2268 7.45078 22.2348 6.90678 22.2401 6.36811C22.2454 5.82411 22.2481 5.27744 22.2481 4.72811C22.2481 4.17878 22.2454 3.63478 22.2401 3.09611C22.2348 2.55211 22.2268 2.00544 22.2161 1.45611H23.9281L24.7761 5.20811L25.7281 1.45611H27.3441C27.3281 2.54411 27.3201 3.63478 27.3201 4.72811C27.3201 5.82144 27.3281 6.91211 27.3441 8.00011H26.0641L26.1441 3.99211ZM30.4904 3.12811C31.1411 3.12811 31.6051 3.34144 31.8824 3.76811C32.1651 4.19478 32.3064 4.80811 32.3064 5.60811C32.3064 6.41344 32.1651 7.02944 31.8824 7.45611C31.6051 7.87744 31.1411 8.08811 30.4904 8.08811C29.8344 8.08811 29.3651 7.87744 29.0824 7.45611C28.8051 7.02944 28.6664 6.41344 28.6664 5.60811C28.6664 4.80811 28.8051 4.19478 29.0824 3.76811C29.3651 3.34144 29.8344 3.12811 30.4904 3.12811ZM30.4904 6.20811C30.5971 6.20811 30.6904 6.18678 30.7704 6.14411C30.8557 6.10144 30.9251 6.04544 30.9784 5.97611C31.0317 5.90678 31.0717 5.82944 31.0984 5.74411C31.1251 5.65344 31.1384 5.56011 31.1384 5.46411C31.1384 5.36811 31.1251 5.27478 31.0984 5.18411C31.0717 5.09344 31.0317 5.01344 30.9784 4.94411C30.9251 4.87478 30.8557 4.81878 30.7704 4.77611C30.6904 4.73344 30.5971 4.71211 30.4904 4.71211C30.2717 4.71211 30.1064 4.78944 29.9944 4.94411C29.8877 5.09878 29.8344 5.27211 29.8344 5.46411C29.8344 5.56011 29.8477 5.65344 29.8744 5.74411C29.9011 5.82944 29.9411 5.90678 29.9944 5.97611C30.0531 6.04544 30.1224 6.10144 30.2024 6.14411C30.2824 6.18678 30.3784 6.20811 30.4904 6.20811ZM33.5345 8.00011C33.5079 7.89344 33.4892 7.77611 33.4785 7.64811C33.4732 7.52011 33.4705 7.38944 33.4705 7.25611C33.4705 7.09078 33.4759 6.93611 33.4865 6.79211C33.5025 6.64811 33.5239 6.50411 33.5505 6.36011L35.2385 4.82411H33.6945C33.6785 4.71744 33.6652 4.59744 33.6545 4.46411C33.6439 4.32544 33.6385 4.17878 33.6385 4.02411C33.6385 3.87478 33.6439 3.73078 33.6545 3.59211C33.6652 3.45344 33.6785 3.32811 33.6945 3.21611H36.7185C36.7292 3.31211 36.7372 3.41078 36.7425 3.51211C36.7532 3.61344 36.7585 3.72544 36.7585 3.84811C36.7585 3.93344 36.7559 4.03478 36.7505 4.15211C36.7452 4.26944 36.7345 4.41878 36.7185 4.60011L34.7985 6.29611H36.7425C36.7585 6.41878 36.7719 6.55478 36.7825 6.70411C36.7932 6.84811 36.7985 6.99744 36.7985 7.15211C36.7985 7.31211 36.7932 7.46678 36.7825 7.61611C36.7719 7.76011 36.7585 7.88811 36.7425 8.00011H33.5345ZM41.9549 8.00011H40.8589V7.60811C40.6669 7.76278 40.4642 7.88278 40.2509 7.96811C40.0376 8.04811 39.8296 8.08811 39.6269 8.08811C39.3869 8.08811 39.1656 8.02944 38.9629 7.91211C38.7602 7.79478 38.5842 7.63211 38.4349 7.42411C38.2909 7.21078 38.1762 6.95744 38.0909 6.66411C38.0056 6.37078 37.9629 6.05078 37.9629 5.70411C37.9629 5.34144 38.0082 5.00278 38.0989 4.68811C38.1896 4.37344 38.3122 4.10144 38.4669 3.87211C38.6269 3.63744 38.8136 3.45611 39.0269 3.32811C39.2456 3.19478 39.4802 3.12811 39.7309 3.12811C39.9496 3.12811 40.1576 3.17611 40.3549 3.27211C40.5522 3.36278 40.7202 3.47744 40.8589 3.61611V3.21611H41.9949L41.9549 8.00011ZM39.4909 5.11211C39.4909 5.33078 39.5496 5.50678 39.6669 5.64011C39.7896 5.77344 39.9442 5.84011 40.1309 5.84011C40.3336 5.84011 40.5042 5.76811 40.6429 5.62411C40.7869 5.48011 40.8589 5.29611 40.8589 5.07211C40.8589 4.97078 40.8402 4.87478 40.8029 4.78411C40.7709 4.69344 40.7229 4.61611 40.6589 4.55211C40.5949 4.48278 40.5202 4.42944 40.4349 4.39211C40.3496 4.35478 40.2589 4.33611 40.1629 4.33611C39.9709 4.33611 39.8109 4.40811 39.6829 4.55211C39.5549 4.69611 39.4909 4.88278 39.4909 5.11211ZM43.3878 3.34411H44.5638V8.00011H43.3878V3.34411ZM44.0038 1.36011C44.1318 1.36011 44.2465 1.38678 44.3478 1.44011C44.4545 1.48811 44.5425 1.55211 44.6118 1.63211C44.6811 1.71211 44.7345 1.80278 44.7718 1.90411C44.8091 2.00011 44.8278 2.09344 44.8278 2.18411C44.8278 2.30678 44.8038 2.42144 44.7558 2.52811C44.7131 2.62944 44.6518 2.72011 44.5718 2.80011C44.4971 2.87478 44.4091 2.93611 44.3078 2.98411C44.2118 3.02678 44.1078 3.04811 43.9958 3.04811C43.8571 3.04811 43.7345 3.02678 43.6278 2.98411C43.5211 2.93611 43.4305 2.87744 43.3558 2.80811C43.2865 2.73344 43.2331 2.64811 43.1958 2.55211C43.1638 2.45611 43.1478 2.35744 43.1478 2.25611C43.1478 2.15478 43.1665 2.05078 43.2038 1.94411C43.2465 1.83744 43.3025 1.74144 43.3718 1.65611C43.4465 1.56544 43.5371 1.49344 43.6438 1.44011C43.7505 1.38678 43.8705 1.36011 44.0038 1.36011ZM48.1815 3.12811C48.4962 3.12811 48.7815 3.17344 49.0375 3.26411C49.0375 3.35478 49.0375 3.45344 49.0375 3.56011C49.0429 3.66144 49.0455 3.76544 49.0455 3.87211C49.0455 3.98411 49.0429 4.09611 49.0375 4.20811C49.0375 4.32011 49.0375 4.42411 49.0375 4.52011C48.8615 4.37078 48.6455 4.29611 48.3895 4.29611C48.2295 4.29611 48.0962 4.32278 47.9895 4.37611C47.8829 4.42411 47.7949 4.48811 47.7255 4.56811C47.6615 4.64811 47.6162 4.73611 47.5895 4.83211C47.5629 4.92278 47.5495 5.01078 47.5495 5.09611C47.5495 5.21344 47.5709 5.32544 47.6135 5.43211C47.6562 5.53344 47.7149 5.62411 47.7895 5.70411C47.8642 5.78411 47.9495 5.84811 48.0455 5.89611C48.1469 5.93878 48.2535 5.96011 48.3655 5.96011C48.4722 5.96011 48.5842 5.93878 48.7015 5.89611C48.8189 5.85344 48.9309 5.79478 49.0375 5.72011C49.0375 5.89611 49.0375 6.08011 49.0375 6.27211C49.0429 6.45878 49.0455 6.64811 49.0455 6.84011C49.0455 7.02678 49.0429 7.21878 49.0375 7.41611C49.0375 7.60811 49.0375 7.80011 49.0375 7.99211C48.7389 8.05611 48.4429 8.08811 48.1495 8.08811C47.7869 8.08811 47.4642 8.03211 47.1815 7.92011C46.8989 7.80278 46.6589 7.63744 46.4615 7.42411C46.2642 7.21078 46.1122 6.95211 46.0055 6.64811C45.9042 6.33878 45.8535 5.99478 45.8535 5.61611C45.8535 5.25878 45.9015 4.92811 45.9975 4.62411C46.0935 4.31478 46.2375 4.05078 46.4295 3.83211C46.6269 3.61344 46.8695 3.44278 47.1575 3.32011C47.4509 3.19211 47.7922 3.12811 48.1815 3.12811ZM54.283 8.00011H53.187V7.60811C52.995 7.76278 52.7924 7.88278 52.579 7.96811C52.3657 8.04811 52.1577 8.08811 51.955 8.08811C51.715 8.08811 51.4937 8.02944 51.291 7.91211C51.0884 7.79478 50.9124 7.63211 50.763 7.42411C50.619 7.21078 50.5044 6.95744 50.419 6.66411C50.3337 6.37078 50.291 6.05078 50.291 5.70411C50.291 5.34144 50.3364 5.00278 50.427 4.68811C50.5177 4.37344 50.6404 4.10144 50.795 3.87211C50.955 3.63744 51.1417 3.45611 51.355 3.32811C51.5737 3.19478 51.8084 3.12811 52.059 3.12811C52.2777 3.12811 52.4857 3.17611 52.683 3.27211C52.8804 3.36278 53.0484 3.47744 53.187 3.61611V3.21611H54.323L54.283 8.00011ZM51.819 5.11211C51.819 5.33078 51.8777 5.50678 51.995 5.64011C52.1177 5.77344 52.2724 5.84011 52.459 5.84011C52.6617 5.84011 52.8324 5.76811 52.971 5.62411C53.115 5.48011 53.187 5.29611 53.187 5.07211C53.187 4.97078 53.1684 4.87478 53.131 4.78411C53.099 4.69344 53.051 4.61611 52.987 4.55211C52.923 4.48278 52.8484 4.42944 52.763 4.39211C52.6777 4.35478 52.587 4.33611 52.491 4.33611C52.299 4.33611 52.139 4.40811 52.011 4.55211C51.883 4.69611 51.819 4.88278 51.819 5.11211Z" fill="url(#paint2_linear_196_12)"/>
<path d="M24.1359 10.0801C24.1359 9.73878 24.1999 9.45878 24.3279 9.24011C24.4612 9.01611 24.6266 8.84011 24.8239 8.71211C25.0266 8.57878 25.2479 8.48811 25.4879 8.44011C25.7332 8.38678 25.9679 8.36011 26.1919 8.36011C26.2559 8.36011 26.3359 8.36278 26.4319 8.36811C26.5332 8.37344 26.6372 8.38144 26.7439 8.39211C26.8559 8.40278 26.9679 8.41878 27.0799 8.44011C27.1972 8.45611 27.3066 8.48011 27.4079 8.51211C27.4186 8.65078 27.4266 8.78144 27.4319 8.90411C27.4372 9.02144 27.4399 9.15744 27.4399 9.31211C27.4399 9.46678 27.4372 9.61611 27.4319 9.76011C27.4266 9.89878 27.4186 10.0321 27.4079 10.1601C27.3652 10.1548 27.3092 10.1468 27.2399 10.1361C27.1759 10.1254 27.1066 10.1174 27.0319 10.1121C26.9626 10.1068 26.8906 10.1014 26.8159 10.0961C26.7466 10.0908 26.6799 10.0881 26.6159 10.0881C26.3599 10.0881 26.1732 10.1281 26.0559 10.2081C25.9386 10.2881 25.8799 10.3974 25.8799 10.5361C25.8799 10.6161 25.8986 10.6934 25.9359 10.7681C25.9732 10.8374 26.0212 10.9041 26.0799 10.9681C26.1439 11.0321 26.2132 11.0934 26.2879 11.1521C26.3679 11.2108 26.4479 11.2668 26.5279 11.3201C26.6559 11.4108 26.7839 11.5121 26.9119 11.6241C27.0452 11.7308 27.1652 11.8614 27.2719 12.0161C27.3786 12.1654 27.4666 12.3414 27.5359 12.5441C27.6052 12.7414 27.6399 12.9708 27.6399 13.2321C27.6399 13.5734 27.5812 13.8614 27.4639 14.0961C27.3466 14.3308 27.1946 14.5228 27.0079 14.6721C26.8266 14.8161 26.6212 14.9228 26.3919 14.9921C26.1679 15.0561 25.9439 15.0881 25.7199 15.0881C25.6186 15.0881 25.4932 15.0801 25.3439 15.0641C25.1999 15.0534 25.0532 15.0348 24.9039 15.0081C24.7546 14.9868 24.6132 14.9601 24.4799 14.9281C24.3466 14.8908 24.2399 14.8481 24.1599 14.8001C24.1386 14.7041 24.1199 14.6054 24.1039 14.5041C24.0932 14.4028 24.0879 14.2908 24.0879 14.1681C24.0879 14.0828 24.0906 13.9788 24.0959 13.8561C24.1066 13.7334 24.1172 13.6081 24.1279 13.4801C24.1386 13.3521 24.1492 13.2294 24.1599 13.1121C24.1759 12.9948 24.1892 12.8961 24.1999 12.8161C24.2586 12.8481 24.3439 12.8854 24.4559 12.9281C24.5679 12.9654 24.6879 13.0028 24.8159 13.0401C24.9492 13.0774 25.0826 13.1094 25.2159 13.1361C25.3492 13.1628 25.4666 13.1761 25.5679 13.1761C25.7386 13.1761 25.8666 13.1414 25.9519 13.0721C26.0372 12.9974 26.0799 12.8988 26.0799 12.7761C26.0799 12.6428 26.0319 12.5254 25.9359 12.4241C25.8399 12.3174 25.7199 12.2134 25.5759 12.1121C25.4319 12.0108 25.2746 11.9041 25.1039 11.7921C24.9386 11.6748 24.7839 11.5388 24.6399 11.3841C24.4959 11.2294 24.3759 11.0481 24.2799 10.8401C24.1839 10.6268 24.1359 10.3734 24.1359 10.0801ZM28.2171 9.28811H29.3131V10.2161H29.9291V12.3441H29.2971V13.4641C29.2971 13.6828 29.3158 13.8294 29.3531 13.9041C29.3904 13.9734 29.4758 14.0081 29.6091 14.0081C29.6464 14.0081 29.6971 14.0054 29.7611 14.0001C29.8251 13.9948 29.8731 13.9868 29.9051 13.9761C29.9158 14.0134 29.9211 14.0908 29.9211 14.2081C29.9211 14.3201 29.9211 14.4348 29.9211 14.5521C29.9211 14.6534 29.9211 14.7468 29.9211 14.8321C29.9211 14.9121 29.9184 14.9681 29.9131 15.0001C29.8491 15.0108 29.7771 15.0188 29.6971 15.0241C29.6224 15.0348 29.5478 15.0428 29.4731 15.0481C29.4038 15.0534 29.3371 15.0561 29.2731 15.0561C29.2144 15.0614 29.1664 15.0641 29.1291 15.0641C28.9371 15.0641 28.7798 15.0268 28.6571 14.9521C28.5344 14.8774 28.4384 14.7788 28.3691 14.6561C28.2998 14.5281 28.2518 14.3868 28.2251 14.2321C28.1984 14.0721 28.1851 13.9094 28.1851 13.7441C28.1851 13.6801 28.1851 13.5868 28.1851 13.4641C28.1904 13.3361 28.1931 13.2028 28.1931 13.0641C28.1984 12.9254 28.2038 12.7921 28.2091 12.6641C28.2144 12.5308 28.2171 12.4241 28.2171 12.3441H27.7371V10.2161H28.2171V9.28811ZM31.255 10.2161L31.311 10.8241C31.375 10.7228 31.4523 10.6294 31.543 10.5441C31.6336 10.4588 31.727 10.3868 31.823 10.3281C31.9243 10.2641 32.023 10.2161 32.119 10.1841C32.2203 10.1468 32.3136 10.1281 32.399 10.1281C32.4096 10.2668 32.4176 10.4268 32.423 10.6081C32.4336 10.7841 32.439 10.9654 32.439 11.1521C32.439 11.3654 32.4336 11.5761 32.423 11.7841C32.4176 11.9921 32.4096 12.1841 32.399 12.3601C32.351 12.3388 32.2843 12.3228 32.199 12.3121C32.1136 12.3014 32.0416 12.2961 31.983 12.2961C31.7856 12.2961 31.639 12.3441 31.543 12.4401C31.4523 12.5308 31.407 12.6454 31.407 12.7841V15.0001H30.231C30.2363 14.1361 30.239 13.3174 30.239 12.5441C30.2443 11.7654 30.247 10.9894 30.247 10.2161H31.255ZM34.8586 15.0001V14.5761C34.7306 14.7308 34.5759 14.8561 34.3946 14.9521C34.2133 15.0428 34.0293 15.0881 33.8426 15.0881C33.7253 15.0881 33.6106 15.0694 33.4986 15.0321C33.3919 15.0001 33.2933 14.9548 33.2026 14.8961C33.1119 14.8374 33.0319 14.7681 32.9626 14.6881C32.8986 14.6028 32.8506 14.5121 32.8186 14.4161C32.7973 14.3414 32.7786 14.2348 32.7626 14.0961C32.7519 13.9521 32.7466 13.8001 32.7466 13.6401V10.2161H33.9226V12.6161C33.9226 12.7761 33.9599 12.9041 34.0346 13.0001C34.1093 13.0908 34.2106 13.1361 34.3386 13.1361C34.4026 13.1361 34.4666 13.1228 34.5306 13.0961C34.5999 13.0694 34.6586 13.0348 34.7066 12.9921C34.7599 12.9494 34.8026 12.8988 34.8346 12.8401C34.8666 12.7814 34.8826 12.7201 34.8826 12.6561V10.2161H36.0586C36.0533 10.3921 36.0479 10.5788 36.0426 10.7761C36.0373 10.9681 36.0319 11.1628 36.0266 11.3601C36.0213 11.5521 36.0159 11.7441 36.0106 11.9361C36.0106 12.1281 36.0106 12.3094 36.0106 12.4801C36.0106 12.5814 36.0106 12.7334 36.0106 12.9361C36.0106 13.1388 36.0106 13.3601 36.0106 13.6001C36.0159 13.8401 36.0186 14.0854 36.0186 14.3361C36.0186 14.5868 36.0186 14.8081 36.0186 15.0001H34.8586ZM38.6345 10.1281C38.9491 10.1281 39.2345 10.1734 39.4905 10.2641C39.4905 10.3548 39.4905 10.4534 39.4905 10.5601C39.4958 10.6614 39.4985 10.7654 39.4985 10.8721C39.4985 10.9841 39.4958 11.0961 39.4905 11.2081C39.4905 11.3201 39.4905 11.4241 39.4905 11.5201C39.3145 11.3708 39.0985 11.2961 38.8425 11.2961C38.6825 11.2961 38.5491 11.3228 38.4425 11.3761C38.3358 11.4241 38.2478 11.4881 38.1785 11.5681C38.1145 11.6481 38.0691 11.7361 38.0425 11.8321C38.0158 11.9228 38.0025 12.0108 38.0025 12.0961C38.0025 12.2134 38.0238 12.3254 38.0665 12.4321C38.1091 12.5334 38.1678 12.6241 38.2425 12.7041C38.3171 12.7841 38.4025 12.8481 38.4985 12.8961C38.5998 12.9388 38.7065 12.9601 38.8185 12.9601C38.9251 12.9601 39.0371 12.9388 39.1545 12.8961C39.2718 12.8534 39.3838 12.7948 39.4905 12.7201C39.4905 12.8961 39.4905 13.0801 39.4905 13.2721C39.4958 13.4588 39.4985 13.6481 39.4985 13.8401C39.4985 14.0268 39.4958 14.2188 39.4905 14.4161C39.4905 14.6081 39.4905 14.8001 39.4905 14.9921C39.1918 15.0561 38.8958 15.0881 38.6025 15.0881C38.2398 15.0881 37.9171 15.0321 37.6345 14.9201C37.3518 14.8028 37.1118 14.6374 36.9145 14.4241C36.7171 14.2108 36.5651 13.9521 36.4585 13.6481C36.3571 13.3388 36.3065 12.9948 36.3065 12.6161C36.3065 12.2588 36.3545 11.9281 36.4505 11.6241C36.5465 11.3148 36.6905 11.0508 36.8825 10.8321C37.0798 10.6134 37.3225 10.4428 37.6105 10.3201C37.9038 10.1921 38.2451 10.1281 38.6345 10.1281ZM40.264 9.28811H41.36V10.2161H41.976V12.3441H41.344V13.4641C41.344 13.6828 41.3626 13.8294 41.4 13.9041C41.4373 13.9734 41.5226 14.0081 41.656 14.0081C41.6933 14.0081 41.744 14.0054 41.808 14.0001C41.872 13.9948 41.92 13.9868 41.952 13.9761C41.9626 14.0134 41.968 14.0908 41.968 14.2081C41.968 14.3201 41.968 14.4348 41.968 14.5521C41.968 14.6534 41.968 14.7468 41.968 14.8321C41.968 14.9121 41.9653 14.9681 41.96 15.0001C41.896 15.0108 41.824 15.0188 41.744 15.0241C41.6693 15.0348 41.5946 15.0428 41.52 15.0481C41.4506 15.0534 41.384 15.0561 41.32 15.0561C41.2613 15.0614 41.2133 15.0641 41.176 15.0641C40.984 15.0641 40.8266 15.0268 40.704 14.9521C40.5813 14.8774 40.4853 14.7788 40.416 14.6561C40.3466 14.5281 40.2986 14.3868 40.272 14.2321C40.2453 14.0721 40.232 13.9094 40.232 13.7441C40.232 13.6801 40.232 13.5868 40.232 13.4641C40.2373 13.3361 40.24 13.2028 40.24 13.0641C40.2453 12.9254 40.2506 12.7921 40.256 12.6641C40.2613 12.5308 40.264 12.4241 40.264 12.3441H39.784V10.2161H40.264V9.28811ZM42.2938 10.3441H43.4698V15.0001H42.2938V10.3441ZM42.9098 8.36011C43.0378 8.36011 43.1525 8.38678 43.2538 8.44011C43.3605 8.48811 43.4485 8.55211 43.5178 8.63211C43.5872 8.71211 43.6405 8.80278 43.6778 8.90411C43.7152 9.00011 43.7338 9.09344 43.7338 9.18411C43.7338 9.30678 43.7098 9.42144 43.6618 9.52811C43.6192 9.62944 43.5578 9.72011 43.4778 9.80011C43.4032 9.87478 43.3152 9.93611 43.2138 9.98411C43.1178 10.0268 43.0138 10.0481 42.9018 10.0481C42.7632 10.0481 42.6405 10.0268 42.5338 9.98411C42.4272 9.93611 42.3365 9.87744 42.2618 9.80811C42.1925 9.73344 42.1392 9.64811 42.1018 9.55211C42.0698 9.45611 42.0538 9.35744 42.0538 9.25611C42.0538 9.15478 42.0725 9.05078 42.1098 8.94411C42.1525 8.83744 42.2085 8.74144 42.2778 8.65611C42.3525 8.56544 42.4432 8.49344 42.5498 8.44011C42.6565 8.38678 42.7765 8.36011 42.9098 8.36011ZM45.5996 10.1281C46.2503 10.1281 46.7143 10.3414 46.9916 10.7681C47.2743 11.1948 47.4156 11.8081 47.4156 12.6081C47.4156 13.4134 47.2743 14.0294 46.9916 14.4561C46.7143 14.8774 46.2503 15.0881 45.5996 15.0881C44.9436 15.0881 44.4743 14.8774 44.1916 14.4561C43.9143 14.0294 43.7756 13.4134 43.7756 12.6081C43.7756 11.8081 43.9143 11.1948 44.1916 10.7681C44.4743 10.3414 44.9436 10.1281 45.5996 10.1281ZM45.5996 13.2081C45.7063 13.2081 45.7996 13.1868 45.8796 13.1441C45.9649 13.1014 46.0343 13.0454 46.0876 12.9761C46.1409 12.9068 46.1809 12.8294 46.2076 12.7441C46.2343 12.6534 46.2476 12.5601 46.2476 12.4641C46.2476 12.3681 46.2343 12.2748 46.2076 12.1841C46.1809 12.0934 46.1409 12.0134 46.0876 11.9441C46.0343 11.8748 45.9649 11.8188 45.8796 11.7761C45.7996 11.7334 45.7063 11.7121 45.5996 11.7121C45.3809 11.7121 45.2156 11.7894 45.1036 11.9441C44.9969 12.0988 44.9436 12.2721 44.9436 12.4641C44.9436 12.5601 44.9569 12.6534 44.9836 12.7441C45.0103 12.8294 45.0503 12.9068 45.1036 12.9761C45.1623 13.0454 45.2316 13.1014 45.3116 13.1441C45.3916 13.1868 45.4876 13.2081 45.5996 13.2081ZM48.8677 10.2161V10.6481C48.9957 10.4881 49.1504 10.3628 49.3317 10.2721C49.5184 10.1761 49.7077 10.1281 49.8997 10.1281C50.1344 10.1281 50.3424 10.1921 50.5237 10.3201C50.705 10.4481 50.825 10.6001 50.8837 10.7761C50.9104 10.8561 50.9317 10.9681 50.9477 11.1121C50.969 11.2508 50.9797 11.4081 50.9797 11.5841V15.0001H49.8037V12.6801C49.8037 12.4401 49.7584 12.2801 49.6677 12.2001C49.5824 12.1148 49.481 12.0721 49.3637 12.0721C49.209 12.0721 49.0864 12.1228 48.9957 12.2241C48.9104 12.3201 48.8677 12.4454 48.8677 12.6001V15.0001H47.7077C47.7077 14.8241 47.7077 14.6401 47.7077 14.4481C47.713 14.2508 47.7157 14.0561 47.7157 13.8641C47.7157 13.6668 47.7157 13.4721 47.7157 13.2801C47.7157 13.0881 47.7157 12.9068 47.7157 12.7361C47.7157 12.6348 47.7157 12.4828 47.7157 12.2801C47.7157 12.0774 47.713 11.8561 47.7077 11.6161C47.7077 11.3761 47.7077 11.1308 47.7077 10.8801C47.7077 10.6294 47.7077 10.4081 47.7077 10.2161H48.8677Z" fill="url(#paint3_linear_196_12)"/>
<defs>
<linearGradient id="paint0_linear_196_12" x1="0" y1="6.5" x2="12" y2="6.5" gradientUnits="userSpaceOnUse">
<stop stop-color="#DB7466"/>
<stop offset="1" stop-color="#8D527F"/>
</linearGradient>
<linearGradient id="paint1_linear_196_12" x1="7.68239" y1="13.4995" x2="14.6192" y2="3.33074" gradientUnits="userSpaceOnUse">
<stop stop-color="#8D527F"/>
<stop offset="1" stop-color="#247BCC"/>
</linearGradient>
<linearGradient id="paint2_linear_196_12" x1="24.3572" y1="2.46165" x2="57.5131" y2="6.91774" gradientUnits="userSpaceOnUse">
<stop stop-color="#D0565A"/>
<stop offset="1" stop-color="#E1866D"/>
</linearGradient>
<linearGradient id="paint3_linear_196_12" x1="25.9999" y1="9.46165" x2="54.2726" y2="12.6857" gradientUnits="userSpaceOnUse">
<stop stop-color="#D0565A"/>
<stop offset="1" stop-color="#E1866D"/>
</linearGradient>
</defs>
</svg>
